<svg xmlns="http://www.w3.org/2000/svg" viewBox="0 0 80 80">
  <defs>
    <linearGradient id="leafGrad" x1="0%" y1="0%" x2="0%" y2="100%">
      <stop offset="0%" style="stop-color:#27ae60;stop-opacity:1" />
      <stop offset="100%" style="stop-color:#2ecc71;stop-opacity:1" />
    </linearGradient>
  </defs>
  <!-- Leaf Shape -->
  <path d="M40 0 C20 0 0 20 0 40 C0 65 20 80 40 80 C60 80 80 65 80 40 C80 20 60 0 40 0 Z" fill="url(#leafGrad)" />
  <!-- Paw Pads -->
  <circle cx="28" cy="35" r="5" fill="#fff"/>
  <circle cx="40" cy="28" r="5" fill="#fff"/>
  <circle cx="52" cy="35" r="5" fill="#fff"/>
  <path d="M40 45 C35 45 32 50 32 55 C32 60 36 65 40 65 C44 65 48 60 48 55 C48 50 45 45 40 45 Z" fill="#fff"/>
</svg>
