<svg xmlns="http://www.w3.org/2000/svg" viewBox="0 0 400 100">
  <defs>
    <linearGradient id="grad1" x1="0%" y1="0%" x2="100%" y2="100%">
      <stop offset="0%" style="stop-color:#2c3e50;stop-opacity:1" />
      <stop offset="100%" style="stop-color:#34495e;stop-opacity:1" />
    </linearGradient>
    <linearGradient id="leafGrad" x1="0%" y1="0%" x2="0%" y2="100%">
      <stop offset="0%" style="stop-color:#27ae60;stop-opacity:1" />
      <stop offset="100%" style="stop-color:#2ecc71;stop-opacity:1" />
    </linearGradient>
  </defs>
  
  <!-- Icon: Leaf with Paw Print -->
  <g transform="translate(20, 10)">
    <!-- Leaf Shape -->
    <path d="M40 0 C20 0 0 20 0 40 C0 65 20 80 40 80 C60 80 80 65 80 40 C80 20 60 0 40 0 Z M40 75 C25 75 10 60 10 40 C10 25 25 10 40 10 C55 10 70 25 70 40 C70 60 55 75 40 75 Z" fill="url(#leafGrad)" />
    <!-- Paw Pads (Simplified) -->
    <circle cx="28" cy="35" r="5" fill="#fff"/>
    <circle cx="40" cy="28" r="5" fill="#fff"/>
    <circle cx="52" cy="35" r="5" fill="#fff"/>
    <path d="M40 45 C35 45 32 50 32 55 C32 60 36 65 40 65 C44 65 48 60 48 55 C48 50 45 45 40 45 Z" fill="#fff"/>
  </g>

  <!-- Text -->
  <text x="110" y="65" font-family="'Inter', sans-serif" font-weight="bold" font-size="50" fill="url(#grad1)">MiniHCS</text>
  <text x="115" y="85" font-family="'Inter', sans-serif" font-size="14" fill="#7f8c8d" letter-spacing="1.5">ANIMAL WORLD</text>
</svg>
